# xmcd
#
# Track frame offsets: 
#        150
#        13351
#        26430
#        39567
#        58125
#        69900
#        81385
#        100326
#        127253
#        143403
#        161047
#
# Disc length: 2520 seconds
#
# Revision: 0
# Processed by: cddbd v1.5.2PL0 Copyright (c) Steve Scherf et al.
# Submitted via: ExactAudioCopy v0.99pb5
#
DISCID=9809d60b
DTITLE=Woods - At Rear House
DYEAR=2007
DGENRE=Other
TTITLE0=Don't Pass on Me
TTITLE1=Hunover
TTITLE2=Keep It On
TTITLE3=Be Still
TTITLE4=Woods Children, Part 2
TTITLE5=Ring Me to Sleep
TTITLE6=Night Creature
TTITLE7=Walk the Dogs
TTITLE8=Love Song for Pigeons
TTITLE9=Bone Tapper
TTITLE10=Picking Up the Pieces
EXTD=
EXTT0=
EXTT1=
EXTT2=
EXTT3=
EXTT4=
EXTT5=
EXTT6=
EXTT7=
EXTT8=
EXTT9=
EXTT10=
PLAYORDER=
